<?xml version="1.0" encoding="UTF-8" standalone="no"?>
<!-- Created with Inkscape (http://www.inkscape.org/) -->

<svg
   width="169.68233mm"
   height="206.28593mm"
   viewBox="0 0 169.68233 206.28593"
   version="1.1"
   id="svg1"
   xml:space="preserve"
   inkscape:version="1.4.2 (ebf0e940, 2025-05-08)"
   sodipodi:docname="labell_logo.svg"
   xmlns:inkscape="http://www.inkscape.org/namespaces/inkscape"
   xmlns:sodipodi="http://sodipodi.sourceforge.net/DTD/sodipodi-0.dtd"
   xmlns="http://www.w3.org/2000/svg"
   xmlns:svg="http://www.w3.org/2000/svg"><sodipodi:namedview
     id="namedview1"
     pagecolor="#ffffff"
     bordercolor="#000000"
     borderopacity="0.25"
     inkscape:showpageshadow="2"
     inkscape:pageopacity="0.0"
     inkscape:pagecheckerboard="0"
     inkscape:deskcolor="#d1d1d1"
     inkscape:document-units="mm"
     inkscape:zoom="0.13102506"
     inkscape:cx="-557.14532"
     inkscape:cy="263.30841"
     inkscape:window-width="1512"
     inkscape:window-height="858"
     inkscape:window-x="0"
     inkscape:window-y="166"
     inkscape:window-maximized="0"
     inkscape:current-layer="layer1" /><defs
     id="defs1" /><g
     inkscape:label="Layer 1"
     inkscape:groupmode="layer"
     id="layer1"
     transform="translate(-250.76333,-272.24152)"><path
       style="fill:currentColor"
       d="m 251.01821,478.09945 c -0.35774,-0.43105 -0.34374,-0.72595 0.0727,-1.53123 0.51434,-0.99462 2.04195,-2.049 9.05358,-6.24896 17.77305,-10.64604 24.56175,-19.95722 29.62993,-40.63958 3.38708,-13.82208 6.84685,-32.78025 11.80758,-64.70089 5.82131,-37.45819 6.46695,-40.33244 11.25195,-50.09132 9.71935,-19.82235 32.08135,-36.56132 55.0988,-41.24394 5.8572,-1.19158 10.10455,-1.54661 16.17071,-1.35169 12.34957,0.39682 21.41258,3.77219 28.10918,10.46879 3.60605,3.60605 5.86746,7.29502 7.25755,11.83899 0.91348,2.986 0.97154,3.57399 0.97542,9.87778 0.003,5.63572 -0.12251,7.29246 -0.79136,10.40694 -2.96858,13.82317 -10.42029,26.60777 -22.62389,38.81494 -6.88939,6.8914 -15.35967,13.35263 -25.53074,19.47515 -8.35792,5.03109 -32.85597,16.7283 -42.99515,20.52911 l -2.21415,0.83001 -1.79841,8.24137 c -3.73092,17.0973 -6.60476,25.94468 -11.80105,36.3305 -2.27362,4.54429 -6.26149,10.86811 -8.74809,13.8724 -0.79431,0.95968 -1.4069,1.78217 -1.36131,1.82776 0.0456,0.0456 1.19186,-0.2271 2.54727,-0.60597 4.19855,-1.17362 8.90278,-1.76399 15.755,-1.97722 8.61627,-0.26812 14.26242,0.23497 26.92604,2.39922 27.11816,4.63456 31.13043,5.11288 40.17476,4.78938 9.15393,-0.32743 15.26639,-1.82367 22.61968,-5.53698 3.10229,-1.56662 3.86493,-2.09871 3.80263,-2.65312 -0.0429,-0.38142 0.01,-0.49533 0.11739,-0.25313 0.12067,0.27207 0.52368,0.35795 1.05449,0.22473 0.81188,-0.20377 0.83888,-0.16226 0.49046,0.75413 -0.75643,1.98956 -4.49643,6.80717 -7.93588,10.22244 -11.75668,11.67405 -26.45529,17.03949 -44.62492,16.28945 -7.48533,-0.309 -10.6941,-0.76747 -29.63334,-4.23402 -16.82398,-3.07938 -23.77727,-3.78149 -35.45416,-3.57997 -12.77455,0.22046 -27.56281,2.53898 -40.7784,6.3933 -5.62003,1.63908 -6.08338,1.71334 -6.62425,1.06163 z m 82.63836,-98.1667 c 14.1011,-7.10555 26.82781,-15.94294 36.50332,-25.34781 15.95736,-15.511 28.05942,-35.88992 30.80397,-51.87143 1.92433,-11.20541 -0.94136,-18.43879 -8.47663,-21.39612 -2.62197,-1.02902 -9.27902,-1.13793 -12.68107,-0.20746 -5.40085,1.47716 -10.23775,4.05233 -15.48558,8.24456 -11.01205,8.79697 -18.87863,20.76799 -23.89541,36.36303 -3.20807,9.97254 -5.75208,21.88029 -10.61125,49.66821 -0.50894,2.91042 -1.01122,5.64885 -1.11619,6.08542 -0.10497,0.43656 -0.0735,0.79375 0.0699,0.79375 0.14341,0 2.34344,-1.04947 4.88894,-2.33215 z"
       id="path1"
       sodipodi:nodetypes="sssssssssscsssscsssssssssssssssssssssssssssssss" /></g></svg>
